<svg width="22" height="22" viewBox="0 0 22 22" fill="none" xmlns="http://www.w3.org/2000/svg">
<g clip-path="url(#clip0_1_439)">
<path d="M9.22464 17.3091C8.15776 17.3091 7.28979 18.1771 7.28979 19.2439C7.28979 20.3108 8.15776 21.1788 9.22464 21.1788C10.2915 21.1788 11.1595 20.3108 11.1595 19.2439C11.1594 18.1771 10.2915 17.3091 9.22464 17.3091ZM9.22464 20.0984C8.75344 20.0984 8.37012 19.715 8.37012 19.2438C8.37012 18.7726 8.75348 18.3893 9.22464 18.3893C9.69579 18.3893 10.0792 18.7727 10.0792 19.2438C10.0792 19.7151 9.69579 20.0984 9.22464 20.0984Z" fill="#292527"/>
<path d="M16.0115 17.3091C14.9446 17.3091 14.0767 18.1771 14.0767 19.2439C14.0767 20.3108 14.9446 21.1788 16.0115 21.1788C17.0784 21.1788 17.9463 20.3108 17.9463 19.2439C17.9463 18.1771 17.0783 17.3091 16.0115 17.3091ZM16.0115 20.0984C15.5403 20.0984 15.157 19.715 15.157 19.2438C15.157 18.7726 15.5404 18.3893 16.0115 18.3893C16.4827 18.3893 16.866 18.7727 16.866 19.2438C16.866 19.7151 16.4827 20.0984 16.0115 20.0984Z" fill="#292527"/>
<path d="M16.4877 7.12231H8.74695C8.44862 7.12231 8.20679 7.36414 8.20679 7.66248C8.20679 7.96081 8.44866 8.20264 8.74695 8.20264H16.4877C16.7861 8.20264 17.0279 7.96081 17.0279 7.66248C17.0279 7.3641 16.7861 7.12231 16.4877 7.12231Z" fill="#292527"/>
<path d="M16.0665 9.92725H9.16834C8.87 9.92725 8.62817 10.1691 8.62817 10.4674C8.62817 10.7657 8.87 11.0076 9.16834 11.0076H16.0664C16.3648 11.0076 16.6066 10.7657 16.6066 10.4674C16.6066 10.1691 16.3648 9.92725 16.0665 9.92725Z" fill="#292527"/>
<path d="M21.7569 4.71556C21.5509 4.46273 21.2457 4.31775 20.9195 4.31775H4.094L3.75421 2.66822C3.68326 2.32412 3.44857 2.0352 3.12626 1.89525L0.755368 0.866149C0.481657 0.747255 0.163559 0.872853 0.0448358 1.14648C-0.074016 1.42019 0.0515819 1.73833 0.325164 1.85705L2.6961 2.8862L5.30972 15.5732C5.41267 16.0729 5.85766 16.4355 6.36783 16.4355H19.3086C19.6069 16.4355 19.8487 16.1937 19.8487 15.8954C19.8487 15.597 19.6069 15.3552 19.3086 15.3552H6.36787L6.04994 13.8119H19.4086C19.9187 13.8119 20.3638 13.4493 20.4667 12.9496L21.9776 5.61592C22.0434 5.29658 21.9629 4.96834 21.7569 4.71556ZM19.4086 12.7317H5.82741L4.31658 5.39803L20.9194 5.39807L19.4086 12.7317Z" fill="#292527"/>
</g>
<defs>
<clipPath id="clip0_1_439">
<rect width="22" height="22" fill="white"/>
</clipPath>
</defs>
</svg>
