<svg width="9" height="13" viewBox="0 0 9 13" fill="none" xmlns="http://www.w3.org/2000/svg">
<path d="M4.86465 0.854004C2.68998 0.854004 0.920776 2.70461 0.920776 4.97934C0.920776 6.03687 1.29958 7.17519 1.9601 8.10241C2.46738 8.81449 2.73548 9.60679 2.73548 10.3937V12.371C2.73548 12.7178 3.01765 13 3.36446 13H6.36486C6.71168 13 6.99384 12.7178 6.99384 12.371V10.3937C6.99384 9.60681 7.26194 8.81449 7.76918 8.10241C8.42969 7.17521 8.80852 6.03687 8.80852 4.97934C8.80847 2.70461 7.03927 0.854004 4.86465 0.854004ZM6.36481 12.371H3.36441V11.9597H4.86462C5.03832 11.9597 5.17914 11.8189 5.17914 11.6452C5.17914 11.4715 5.03832 11.3307 4.86462 11.3307H3.36441V10.9194H6.36489L6.36524 12.371C6.36522 12.371 6.36509 12.371 6.36481 12.371ZM4.42361 6.50358L4.00304 5.60507H5.72621L5.30569 6.50358C5.28913 6.53895 5.2793 6.57711 5.27669 6.61606L5.03281 10.2904H4.69646L4.45258 6.61606C4.44999 6.57711 4.44014 6.53895 4.42361 6.50358ZM7.25687 7.73749C6.69515 8.52603 6.3883 9.4065 6.36611 10.2904H5.66319L5.90036 6.71666L6.50545 5.42389C6.55105 5.32649 6.54372 5.21251 6.48598 5.12176C6.42826 5.03104 6.32817 4.97607 6.22062 4.97607H3.5086C3.40105 4.97607 3.30098 5.03104 3.24324 5.12176C3.18553 5.21248 3.17817 5.32646 3.22377 5.42386L3.82888 6.71663L4.06606 10.2904H3.36309C3.3409 9.40645 3.03408 8.526 2.47233 7.73747C1.89459 6.92644 1.54968 5.89534 1.54968 4.97932C1.54968 3.0514 3.03674 1.48296 4.86457 1.48296C6.6924 1.48296 8.17946 3.0514 8.17946 4.97932C8.17951 5.89539 7.83461 6.92649 7.25687 7.73749Z" fill="#C92B0B"/>
</svg>
