<svg width="18" height="22" viewBox="0 0 18 22" fill="none" xmlns="http://www.w3.org/2000/svg">
<path d="M14.0896 14.2855C14.0721 14.2836 11.5396 14.3584 11.1631 11.6445C11.5815 11.3526 11.9671 10.9736 12.3068 10.5138C12.9676 9.61916 13.3935 8.4969 13.5451 7.28299C13.5973 7.23585 13.6404 7.1772 13.6695 7.10806C13.9439 6.45429 14.0831 5.75622 14.0831 5.03314C14.0831 2.25788 11.9896 0 9.41619 0C8.74317 0 8.09022 0.155031 7.47353 0.461184C7.23828 0.479145 7.00775 0.520523 6.78668 0.584375C5.72978 0.889754 4.86971 1.67338 4.36487 2.79099C3.87477 3.87613 3.77818 5.15354 4.09297 6.38799C4.15948 6.64877 4.24405 6.90504 4.34434 7.14987C4.37149 7.21609 4.41197 7.27259 4.46057 7.31908C4.70626 9.21379 5.60779 10.7837 6.83704 11.6407C6.45934 14.3592 3.9278 14.2837 3.91035 14.2856C2.08925 14.3474 0.626465 15.8471 0.626465 17.683V21.5047C0.626465 21.7783 0.848227 22 1.12181 22H5.47158H12.5282H16.8781C17.1516 22 17.3734 21.7783 17.3734 21.5047V17.683C17.3734 15.847 15.9107 14.3473 14.0896 14.2855ZM7.06172 1.53618C7.24249 1.48393 7.4334 1.45295 7.62917 1.44414C7.70183 1.44087 7.77285 1.42166 7.83726 1.3878C8.33875 1.12432 8.87002 0.99073 9.41624 0.99073C11.4432 0.99073 13.0924 2.80414 13.0924 5.03314C13.0924 5.10005 13.0905 5.16661 13.0876 5.23291C12.6944 4.83364 12.1481 4.5855 11.5449 4.5855H8.16881C7.96793 4.5855 7.77728 4.52242 7.61739 4.40305C7.48088 4.30117 7.37535 4.16423 7.31232 4.00705C7.21469 3.76393 6.97398 3.61187 6.71196 3.62832C6.44899 3.64508 6.2277 3.8277 6.16127 4.08289C5.96563 4.83467 5.57552 5.52716 5.0403 6.08872C4.54229 4.03915 5.44107 2.00441 7.06172 1.53618ZM6.63075 10.1037C5.98617 9.31623 5.56405 8.25288 5.43024 7.08873C6.05531 6.53164 6.54945 5.83838 6.87115 5.06941C6.91997 5.11444 6.97123 5.15702 7.02477 5.19703C7.35717 5.44509 7.75274 5.57627 8.16885 5.57627H11.545C12.0226 5.57627 12.4344 5.86278 12.6181 6.27284C12.6181 6.27636 12.6175 6.27971 12.6175 6.28323C12.6175 9.07955 10.995 11.3545 9.00069 11.3545C8.13272 11.3546 7.291 10.9103 6.63075 10.1037ZM7.76894 12.1272C8.16164 12.2693 8.57469 12.3453 9.00069 12.3453C9.42328 12.3453 9.83617 12.2717 10.2314 12.1298C10.4128 13.0747 10.9382 13.8983 11.6721 14.4653L9.07094 18.1696C9.05397 18.1937 9.03038 18.206 9.00081 18.206C8.9713 18.206 8.94771 18.1937 8.93078 18.1696L6.32902 14.4645C7.06292 13.8969 7.58813 13.0727 7.76894 12.1272ZM16.3827 21.0093H12.5282H5.47158H1.61715V17.6829C1.61715 16.3542 2.69812 15.2733 4.0268 15.2733C4.04484 15.2733 4.84196 15.2539 5.47179 14.9677L8.11991 18.7389C8.32118 19.0256 8.65049 19.1967 9.00077 19.1967C9.00077 19.1967 9.00077 19.1967 9.00081 19.1967C9.35105 19.1967 9.68041 19.0256 9.88167 18.7389L12.5293 14.9683C13.2476 15.2733 13.955 15.2733 13.9731 15.2733C15.3018 15.2733 16.3827 16.3543 16.3827 17.683V21.0093Z" fill="#292527"/>
</svg>
