<svg width="13" height="12" viewBox="0 0 13 12" fill="none" xmlns="http://www.w3.org/2000/svg">
<path d="M10.9 3.22612V1.29534C10.9 1.08271 10.7906 0.89158 10.6074 0.784072C10.4234 0.676143 10.2021 0.673916 10.0156 0.778283C8.23374 1.77475 6.29544 2.35668 4.2545 2.50802C4.23887 2.50917 2.39422 2.51723 2.39422 2.51723C1.93093 2.51723 1.54801 2.86699 1.49501 3.31624H1.11638C0.70189 3.31624 0.364624 3.65346 0.364624 4.06797V5.71956C0.364624 6.13408 0.70189 6.47132 1.11638 6.47132H1.49497C1.53312 6.79464 1.74209 7.06624 2.02899 7.19317L3.3763 10.9115C3.46051 11.1429 3.68255 11.2985 3.92891 11.2985H5.28094C5.47262 11.2985 5.65266 11.2047 5.76261 11.0478C5.87255 10.8907 5.89906 10.6895 5.83362 10.5096L4.67607 7.31657C6.56237 7.51253 8.35667 8.08066 10.0155 9.00836C10.1071 9.05955 10.2069 9.08507 10.3066 9.08507C10.4101 9.08505 10.5136 9.05753 10.6073 9.00255C10.7906 8.89502 10.9 8.70391 10.9 8.49124V6.56045C11.725 6.45358 12.3646 5.74696 12.3646 4.8933C12.3646 4.03961 11.725 3.33297 10.9 3.22612ZM1.48848 5.89153H1.11638C1.02153 5.89153 0.944397 5.81439 0.944397 5.71954V4.06797C0.944397 3.97319 1.02153 3.89601 1.11638 3.89601H1.48848V5.89153ZM2.26142 6.66199C2.14775 6.61103 2.06825 6.49701 2.06825 6.36461V3.4229H2.06827C2.06827 3.24321 2.2145 3.097 2.39419 3.097H3.97231V6.69053C3.97231 6.69053 2.38044 6.68992 2.37357 6.6895C2.31542 6.68278 2.30319 6.67978 2.26142 6.66199ZM5.28863 10.7075C5.28957 10.7099 5.29018 10.7115 5.28767 10.7151C5.28521 10.7186 5.28338 10.7186 5.28092 10.7186H3.92888C3.92544 10.7186 3.92227 10.7164 3.92122 10.7136L2.67357 7.27028H4.04258L5.28863 10.7075ZM10.3203 8.49126C10.3203 8.49546 10.3203 8.49881 10.314 8.50249C10.3066 8.5068 10.3021 8.50434 10.2985 8.50235C8.51649 7.50578 6.58442 6.90754 4.55208 6.72203V3.06485C6.58458 2.87906 8.51665 2.28077 10.2985 1.2843C10.3021 1.28231 10.3066 1.27985 10.314 1.28416C10.3203 1.28784 10.3203 1.29114 10.3203 1.29534V8.49126ZM10.9 5.97358V3.81299C11.404 3.9141 11.7849 4.36 11.7849 4.89328C11.7849 5.42657 11.404 5.87249 10.9 5.97358Z" fill="#FF2C02"/>
</svg>
