<svg width="20" height="20" viewBox="0 0 20 20" fill="none" xmlns="http://www.w3.org/2000/svg">
<path d="M17.8751 2.12376C15.0463 -0.70499 10.4436 -0.70499 7.61488 2.12376C6.24453 3.49403 5.48992 5.31599 5.48992 7.25388C5.48992 9.01923 6.11645 10.6881 7.26387 12.0073L6.39984 12.8713L5.5193 11.9908C5.42281 11.8943 5.29191 11.8401 5.15547 11.8401C5.01902 11.8401 4.88812 11.8943 4.79164 11.9908L0.666211 16.1163C0.236602 16.5458 0 17.1169 0 17.7245C0 18.332 0.236602 18.9031 0.666133 19.3327C1.09574 19.7623 1.66688 19.9988 2.27434 19.9988C2.8818 19.9988 3.45301 19.7622 3.88254 19.3327L8.00801 15.2073C8.10449 15.1108 8.15871 14.9799 8.15871 14.8435C8.15871 14.707 8.10449 14.5761 8.00801 14.4797L7.12746 13.5991L7.99176 12.7348C9.35086 13.9151 11.0478 14.5056 12.745 14.5056C14.6028 14.5056 16.4607 13.7984 17.8751 12.384C19.2453 11.0137 20 9.19184 20 7.25395C20 5.31595 19.2454 3.49403 17.8751 2.12376ZM3.15488 18.605C2.91969 18.8402 2.60699 18.9697 2.27434 18.9697C1.94172 18.9697 1.62898 18.8402 1.39379 18.605C1.15863 18.3698 1.02906 18.0571 1.02906 17.7245C1.02906 17.3919 1.15863 17.0791 1.39383 16.844L3.69594 14.5418L5.45703 16.3029L3.15488 18.605ZM6.18477 15.5752L4.42367 13.8141L5.15547 13.0823L6.91656 14.8434L6.18477 15.5752ZM17.1474 11.6563C14.7199 14.0839 10.7701 14.0839 8.34258 11.6563C7.16664 10.4804 6.51902 8.91692 6.51902 7.25388C6.51902 5.59083 7.16664 4.02739 8.34258 2.85149C9.55633 1.63774 11.1507 1.03083 12.745 1.03083C14.3393 1.03083 15.9337 1.63767 17.1474 2.85149C18.3234 4.02739 18.971 5.59087 18.971 7.25388C18.971 8.91688 18.3233 10.4804 17.1474 11.6563Z" fill="#292527"/>
</svg>
