<svg width="10" height="10" viewBox="0 0 10 10" fill="none" xmlns="http://www.w3.org/2000/svg">
<path d="M9.5097 4.33359C9.70889 4.13943 9.7792 3.85449 9.69327 3.58995C9.60731 3.32541 9.38293 3.13624 9.10767 3.09626L6.70077 2.74652C6.65353 2.73966 6.61269 2.70999 6.59155 2.66715L5.51516 0.486166C5.39207 0.236732 5.14281 0.0817871 4.86465 0.0817871C4.5865 0.0817871 4.33723 0.236732 4.21415 0.486166L3.13776 2.66717C3.1166 2.70999 3.07578 2.73966 3.02851 2.74654L0.621661 3.09626C0.346403 3.13624 0.122042 3.32541 0.0360616 3.58995C-0.0499189 3.85449 0.0204209 4.13943 0.219624 4.33359L1.96125 6.03126C1.99544 6.0646 2.01106 6.11262 2.00298 6.15969L1.59183 8.55683C1.54482 8.831 1.65538 9.10284 1.88041 9.26633C2.10544 9.42987 2.39823 9.45099 2.64439 9.32159L4.79715 8.18982C4.83943 8.16758 4.8899 8.16758 4.9322 8.18982L7.08498 9.32159C7.19206 9.37788 7.30792 9.4057 7.42323 9.40568C7.57297 9.40568 7.72177 9.35876 7.8489 9.26631C8.07393 9.1028 8.18451 8.83093 8.13748 8.55681L7.72633 6.15967C7.71827 6.1126 7.73387 6.06458 7.76805 6.03124L9.5097 4.33359ZM7.15439 6.25781L7.56554 8.655C7.57929 8.73522 7.52977 8.78096 7.50783 8.79688C7.48588 8.81278 7.42705 8.8458 7.35504 8.8079L5.20226 7.67613C5.09658 7.62059 4.98065 7.59279 4.8647 7.59279C4.74875 7.59279 4.63279 7.62059 4.52713 7.6761L2.37438 8.80786C2.30232 8.84573 2.24352 8.81276 2.22158 8.79684C2.19965 8.78092 2.1501 8.73518 2.16387 8.65495L2.57502 6.25781C2.61539 6.02245 2.53742 5.78243 2.36639 5.61573L0.624755 3.91806C0.566468 3.86121 0.579659 3.7951 0.58806 3.76932C0.596417 3.74352 0.624626 3.68227 0.705171 3.67058L3.112 3.32084C3.34831 3.2865 3.55252 3.13818 3.65822 2.924L4.73461 0.74299C4.77064 0.670008 4.83758 0.662123 4.86472 0.662123C4.89181 0.662123 4.95876 0.669986 4.99481 0.74299V0.743012L6.07119 2.92402C6.17688 3.1382 6.38106 3.28653 6.61737 3.32086L9.02424 3.6706C9.10479 3.68229 9.13298 3.74354 9.14135 3.76934C9.14973 3.79515 9.16295 3.86127 9.10464 3.91808L7.36301 5.61575C7.19199 5.78243 7.11402 6.02245 7.15439 6.25781Z" fill="#FF2C02"/>
</svg>
