<svg width="113" height="85" viewBox="0 0 113 85" fill="none" xmlns="http://www.w3.org/2000/svg">
<path d="M89.8321 6.07448V41.9587C89.8321 42.3102 89.3564 42.4086 89.2165 42.0852C85.8308 34.4922 84.082 26.2664 84.082 17.9562V6.14479C84.082 5.55421 83.6064 5.09019 83.0328 5.09019H81.4239C80.9342 5.09019 80.5425 5.48391 80.5425 5.97605V80.8379C80.5425 81.3582 80.9622 81.7941 81.4938 81.7941H83.1307C83.6483 81.7941 84.082 81.3723 84.082 80.8379V40.7775C84.082 40.426 84.5577 40.3276 84.6976 40.651C88.0833 48.244 89.8321 56.4699 89.8321 64.78V80.852C89.8321 81.3723 90.2518 81.8082 90.7834 81.8082H92.4203C92.9379 81.8082 93.3716 81.3863 93.3716 80.852V5.94793C93.3716 5.48391 92.9939 5.09019 92.5182 5.09019H90.7974C90.2658 5.10426 89.8321 5.54015 89.8321 6.07448Z" fill="white"/>
<path d="M54.0164 43.4492C54.0164 55.5981 54.0164 67.7329 54.0164 79.8818C54.0164 81.766 54.0164 81.766 52.1837 81.766C49.8753 81.766 49.8753 81.766 49.8753 79.474C49.8753 68.8437 49.8893 58.2275 49.8893 47.5972C49.8893 46.0224 49.8893 46.0224 48.3643 46.0224C47.5669 46.0224 46.7834 46.0505 45.986 46.0083C45.2305 45.9661 44.9926 46.2895 44.9926 47.0348C44.9926 48.9471 45.1465 50.8594 45.1465 52.7718C45.1885 61.8412 45.1605 70.9107 45.1605 79.9942C45.1605 81.7519 45.1465 81.766 43.4397 81.78C41.0474 81.7941 41.0474 81.7941 41.0474 79.3474C41.0474 55.2043 41.0474 31.0612 41.0474 6.91815C41.0474 5.17456 41.0474 5.1605 42.7542 5.17456C45.4403 5.18862 45.1605 4.9074 45.1605 7.63527C45.1745 17.4359 45.1745 27.2225 45.1605 37.0232C45.1605 38.3871 45.0766 39.7651 45.0066 41.1291C44.9787 41.7618 45.2165 42.0571 45.874 42.043C46.9093 42.0149 47.9586 42.0149 49.0079 42.043C49.6654 42.0571 49.9033 41.7478 49.8893 41.115C49.8753 39.9198 49.8753 38.7246 49.8753 37.5435C49.8753 27.2788 49.8753 17.0141 49.8753 6.74942C49.8753 5.17456 49.8893 5.1605 51.4282 5.17456C54.3102 5.20268 54.0024 4.82303 54.0024 7.78995C54.0164 19.6717 54.0164 31.5674 54.0164 43.4492Z" fill="white"/>
<path d="M95.8338 43.3507C95.8338 31.1456 95.8338 18.9264 95.8338 6.72127C95.8338 5.16048 95.8338 5.1183 97.3588 5.16048C99.6951 5.21673 102.032 4.96362 104.354 5.35734C106.075 5.65262 107.18 6.67909 107.838 8.23988C108.285 9.30854 108.467 10.4475 108.467 11.6286C108.453 32.8048 108.453 53.9669 108.467 75.1431C108.467 76.3946 108.271 77.6038 107.796 78.7428C107.236 80.0786 106.243 81.0066 104.83 81.3722C102.143 82.0472 99.4013 81.7519 96.6732 81.7519C95.9457 81.7519 95.8198 81.2738 95.8198 80.6551C95.8338 77.6882 95.8198 74.7353 95.8198 71.7684C95.8338 62.2912 95.8338 52.828 95.8338 43.3507ZM99.8071 43.5195C99.8071 54.2903 99.8071 65.0612 99.8071 75.8181C99.8071 77.8569 99.8071 77.8569 101.878 77.8429C104.018 77.8288 104.48 77.3788 104.48 75.2415C104.48 57.7494 104.48 40.2573 104.48 22.7792C104.48 18.9123 104.48 15.0455 104.466 11.1787C104.466 9.94129 103.794 9.23823 102.563 9.16792C102.129 9.1398 101.696 9.15386 101.276 9.15386C99.8071 9.15386 99.7931 9.15386 99.7931 10.6725C99.8071 21.6262 99.8071 32.5798 99.8071 43.5195Z" fill="white"/>
<path d="M16.5084 43.3797C16.5084 55.5989 16.5084 67.804 16.5084 80.0232C16.5084 81.7668 16.4944 81.7668 14.7736 81.7808C12.5632 81.7949 12.5492 81.7949 12.5492 79.6295C12.5492 71.3193 12.5352 63.0091 12.5632 54.6989C12.5632 52.2101 12.6051 49.7213 12.5632 47.2324C12.5492 46.3747 12.3393 45.9669 11.4159 46.0232C10.3807 46.0935 9.51326 46.0513 8.46398 46.0372C7.93235 46.0372 7.66653 46.2622 7.68052 46.8247C7.69451 47.1481 7.68052 47.4715 7.68052 47.7949C7.68052 58.5939 7.68052 69.407 7.68052 80.206C7.68052 81.7668 7.68052 81.7668 6.12759 81.7808C3.72125 81.7949 3.72125 81.7949 3.72125 79.3764C3.72125 55.3176 3.72125 31.2448 3.72125 7.18612C3.72125 6.82053 3.73524 6.469 3.72125 6.10341C3.70726 5.49878 3.95909 5.13318 4.61663 5.17537C4.68659 5.17537 4.75654 5.17537 4.82649 5.17537C8.25412 5.20349 7.65254 4.8379 7.66653 7.93137C7.69451 18.8147 7.66653 29.684 7.66653 40.5674C7.66653 42.0438 7.66653 42.0438 9.14951 42.0438C9.86302 42.0438 10.5905 41.9876 11.304 42.0579C12.3673 42.1704 12.6471 41.8189 12.6051 40.6799C12.5492 38.9082 12.5492 37.1506 12.5492 35.3788C12.5072 25.8735 12.5352 16.3681 12.5352 6.86271C12.5352 5.16131 12.5352 5.14725 14.172 5.16131C16.7742 5.17537 16.4804 4.96445 16.4804 7.49547C16.5084 19.4616 16.5084 31.4136 16.5084 43.3797Z" fill="white"/>
<path d="M25.6862 43.4351C25.6862 32.5517 25.6862 21.6824 25.6862 10.799C25.6862 8.15553 27.1971 5.97604 29.4076 5.44171C30.7087 5.13237 32.0238 5.14643 33.3669 5.23079C36.8225 5.45577 38.5853 8.35238 38.5573 11.2912C38.5293 14.3565 38.5293 17.4359 38.5713 20.5013C38.5853 21.4012 38.3614 21.809 37.3681 21.7808C34.1084 21.6824 34.598 22.2167 34.57 18.9686C34.5421 16.4798 34.57 13.9769 34.5421 11.488C34.5141 9.5054 33.0451 8.49299 31.1564 9.09763C30.275 9.37885 29.7574 9.95536 29.7154 10.8975C29.6874 11.4037 29.6734 11.9099 29.6734 12.4161C29.4496 29.2895 29.4496 46.163 29.5615 63.0364C29.5895 67.2267 29.5475 71.4169 29.7014 75.6071C29.7714 77.5476 30.289 78.0679 32.1497 78.0679C33.8425 78.0679 34.5561 77.3789 34.5561 75.6071C34.584 66.1018 34.57 56.5964 34.598 47.091C34.598 46.2052 34.2483 45.9942 33.4368 45.9942C31.8279 46.0083 31.8139 45.9661 31.8139 44.3631C31.8139 41.6915 31.6461 42.043 34.1084 42.0149C35.2975 42.0009 36.4867 42.029 37.6619 42.0149C38.3055 42.0149 38.5993 42.2961 38.5573 42.9289C38.5433 43.0695 38.5573 43.2242 38.5573 43.3648C38.5573 54.0935 38.5573 64.8363 38.5433 75.565C38.5433 77.7444 37.8158 79.5865 35.9131 80.8379C33.129 82.6799 27.9946 81.6816 26.3717 78.9678C25.7561 77.9272 25.6582 76.7883 25.6582 75.6212C25.6582 64.8925 25.6582 54.1497 25.6582 43.421C25.6722 43.4351 25.6722 43.4351 25.6862 43.4351Z" fill="white"/>
<path d="M56.3109 43.4913C56.3109 31.244 56.3109 18.9967 56.3109 6.74941C56.3109 5.1605 56.3109 5.14644 57.9337 5.1605C60.7598 5.17456 60.3401 4.93552 60.3401 7.59309C60.3541 30.4285 60.3401 53.2498 60.3401 76.0852C60.3401 77.8429 60.2142 77.8429 61.921 77.7726C62.7744 77.7444 63.0682 78.0678 63.0682 78.8975C63.0402 82.23 63.32 81.7378 60.396 81.7659C59.4307 81.78 58.4514 81.7378 57.486 81.7659C56.6187 81.7941 56.2969 81.4566 56.2969 80.5567C56.3388 76.9148 56.3109 73.2589 56.3109 69.6171C56.3109 60.8991 56.3109 52.1952 56.3109 43.4913Z" fill="white"/>
<path d="M23.0141 43.4351C23.0141 55.6543 23.0141 67.8594 23.0141 80.0786C23.0141 81.7659 23.0141 81.7659 21.3633 81.78C19.0688 81.7941 19.0688 81.7941 19.0688 79.488C19.0688 55.4574 19.0688 31.4268 19.0688 7.39623C19.0688 5.1605 19.0688 5.1605 21.3073 5.1605C23.0001 5.17456 23.0141 5.17456 23.0141 6.90409C23.0141 19.0811 23.0141 31.2581 23.0141 43.4351Z" fill="white"/>
<path d="M78.2479 11.3053C78.2759 8.38052 76.5131 5.46985 73.0575 5.24487C71.7144 5.1605 70.3993 5.14644 69.0982 5.45579C66.8877 5.99011 65.3768 8.1696 65.3768 10.8131C65.3628 21.6965 65.3768 32.5658 65.3768 43.4492H65.3628C65.3628 53.8826 65.3628 70.1233 65.3628 80.8801C65.3628 81.3863 65.7685 81.7941 66.2862 81.7941L68.5806 81.78C69.0143 81.78 69.364 81.4144 69.35 80.9785C69.2381 76.3946 69.2661 67.0017 69.2381 63.0505C69.1961 57.6229 69.1822 52.1952 69.1682 46.7676C69.1682 46.2473 69.448 46.0224 69.9796 46.0224C71.0289 46.0364 71.8963 46.0646 72.9316 46.0083C73.799 45.9521 74.1907 46.3036 74.2467 47.0488C74.2467 62.6568 74.2466 77.7445 74.2606 78.9397C74.3026 82.1878 73.799 81.6675 77.0587 81.7519C78.052 81.78 78.2619 81.3582 78.2619 80.4723C78.2199 77.421 78.2059 14.3847 78.2479 11.3053ZM74.2327 40.6791C74.2466 41.8181 73.8969 42.1555 72.8336 42.0571C72.1201 41.9868 71.3926 42.043 70.6791 42.043C69.3081 42.043 69.1682 42.043 69.1542 40.89C69.1542 31.4128 69.2101 21.9355 69.336 12.4583C69.336 11.9521 69.35 11.4459 69.378 10.9397C69.434 9.99756 69.9376 9.42105 70.819 9.13983C72.6937 8.53519 74.1767 9.5476 74.2047 11.5302C74.2327 12.6411 74.2327 26.0836 74.2327 40.6791Z" fill="white"/>
</svg>
